<svg width="20" height="22" viewBox="0 0 20 22" fill="none" xmlns="http://www.w3.org/2000/svg">
<path d="M18.1023 7.91417V7.4472C18.6982 7.30781 19.1477 6.77463 19.1477 6.1369C19.1477 5.39811 18.5414 4.79175 17.7991 4.79175C17.0603 4.79175 16.4539 5.39811 16.4539 6.1369C16.4539 6.75023 16.8652 7.26251 17.4262 7.42281V7.91417C17.4262 8.24872 17.1509 8.52402 16.8164 8.52402H13.0527V9.20008H16.8164C17.5238 9.20008 18.1023 8.6216 18.1023 7.91417Z" fill="#323445"/>
<path d="M15.5339 4.7603V4.29333C16.1299 4.15393 16.5794 3.62075 16.5794 2.98302C16.5794 2.24424 15.973 1.64136 15.2308 1.64136C14.492 1.64136 13.8856 2.24424 13.8856 2.98302C13.8856 3.59636 14.2968 4.10863 14.8579 4.26893V4.7603C14.8579 5.09484 14.5826 5.37015 14.248 5.37015H13.0527V6.04621H14.248C14.9555 6.04621 15.5339 5.46772 15.5339 4.7603Z" fill="#323445"/>
<path d="M18.1017 16.3822V15.9152C18.1017 15.2078 17.5232 14.6328 16.8193 14.6328H13.0557V15.3089H16.8193C17.1538 15.3089 17.4292 15.5842 17.4292 15.9187V16.4101C16.8681 16.5739 16.4569 17.0861 16.4569 17.696C16.4569 18.4348 17.0632 19.0411 17.802 19.0411C18.5443 19.0411 19.1507 18.4348 19.1507 17.696C19.1437 17.0548 18.6941 16.5216 18.1017 16.3822Z" fill="#323445"/>
<path d="M14.9654 18.6334V18.1665C14.9654 17.4555 14.3904 16.884 13.6829 16.884H13.0557V17.5601H13.6829C14.0175 17.5601 14.2928 17.8319 14.2928 18.1699V18.6578C13.7352 18.8251 13.324 19.3339 13.324 19.9472C13.324 20.686 13.9269 21.2889 14.6657 21.2889C15.4079 21.2889 16.0143 20.686 16.0143 19.9472C16.0073 19.306 15.5613 18.7728 14.9654 18.6334Z" fill="#323445"/>
<path d="M17.7602 13.2599C18.5025 13.2599 19.1088 12.6535 19.1088 11.9112C19.1088 11.1725 18.5025 10.5696 17.7602 10.5696C17.1399 10.5696 16.6137 10.9982 16.4673 11.5767H13.0557V12.2528H16.4673C16.6172 12.8312 17.1364 13.2599 17.7602 13.2599Z" fill="#323445"/>
<path d="M9.43181 0.710938C7.82181 0.710938 6.515 2.01776 6.515 3.65563C6.515 3.82291 6.54288 3.99018 6.57075 4.15397C6.26409 4.04245 5.93303 3.98669 5.5706 3.98669C3.9606 3.98669 2.65378 5.29351 2.65378 6.93139C2.65378 7.10563 2.67121 7.27291 2.70257 7.44018C2.70606 7.44367 2.71303 7.44715 2.71651 7.45063C3.21136 7.97336 3.88394 8.25912 4.60878 8.25912C4.79697 8.25912 4.94681 8.40897 4.94681 8.59715C4.94681 8.78533 4.79697 8.93518 4.60878 8.93518C3.85606 8.93518 3.14863 8.68427 2.57015 8.22776C1.55257 8.68079 0.848633 9.69836 0.848633 10.8797C0.848633 12.2423 1.79303 13.4062 3.07197 13.7129C2.79318 14.159 2.65378 14.6573 2.65378 15.2114C2.65378 16.7935 3.9606 18.1282 5.5706 18.1282C5.71697 18.1282 5.86333 18.1143 6.00969 18.0934C6.34772 17.0688 7.16666 16.2812 8.20863 15.992C7.79394 15.5947 7.48727 15.0859 7.33045 14.5144C7.02727 14.7653 6.65788 14.9465 6.23969 15.0267C6.21878 15.0302 6.19788 15.0337 6.17697 15.0337C6.01666 15.0337 5.87727 14.9221 5.84591 14.7584C5.81106 14.5737 5.92954 14.3994 6.11424 14.3611C6.59166 14.2705 6.98197 13.9917 7.23287 13.6188C7.24681 13.5665 7.27121 13.5212 7.30954 13.4829C7.49424 13.1484 7.57439 12.7511 7.50469 12.3364C7.47333 12.1517 7.59878 11.9775 7.78348 11.9461C7.96818 11.9147 8.14242 12.0402 8.17378 12.2249C8.27136 12.8034 8.16333 13.3609 7.90197 13.8314C7.99606 15.18 9.11121 16.2185 10.4912 16.2185C10.6794 16.2185 10.8292 16.3684 10.8292 16.5565C10.8292 16.7447 10.6794 16.8946 10.4912 16.8946C9.95454 16.8946 9.44924 16.7691 9.00318 16.5461C7.77651 16.5879 6.7903 17.4696 6.56727 18.6405C6.81121 20.0065 7.99954 21.045 9.4353 21.045C11.0453 21.045 12.38 19.7382 12.38 18.1282V10.6846C12.2964 10.6915 12.2127 10.702 12.1326 10.702C11.6865 10.702 11.2474 10.5835 10.8501 10.357C10.3832 10.0852 10.0208 9.68094 9.80121 9.19306C9.4109 9.41957 8.97181 9.53806 8.51181 9.53806C8.46651 9.53806 8.42121 9.53806 8.37591 9.53457C8.18772 9.52412 8.04485 9.3673 8.0553 9.17912C8.06575 8.99094 8.22606 8.85154 8.41075 8.85851C8.91606 8.88291 9.40394 8.71215 9.7803 8.3776C10.1601 8.03957 10.3832 7.56912 10.4076 7.05685C10.418 6.86867 10.5818 6.72579 10.763 6.73624C10.9477 6.7467 11.0941 6.90351 11.0836 7.0917C11.0523 7.72594 10.7944 8.30791 10.3623 8.75397C10.5121 9.1826 10.7979 9.54154 11.1917 9.76806C11.5541 9.97715 11.9688 10.0538 12.3835 9.99806V3.65563C12.3765 2.01427 11.0418 0.710938 9.43181 0.710938Z" fill="#323445"/>
</svg>
