<svg width="15" height="16" viewBox="0 0 15 16" fill="none" xmlns="http://www.w3.org/2000/svg">
<g clip-path="url(#clip0_1074_12527)">
<path d="M13.6387 0.0100097C13.6231 0.008667 13.61 0 13.5937 0H6.875C5.84126 0 5 0.897339 5 2V2.66663C5 3.03467 5.27992 3.33337 5.62496 3.33337C5.97 3.33337 6.24992 3.03467 6.24992 2.66663V2C6.24992 1.63269 6.53053 1.33337 6.875 1.33337H9.78683L9.59618 1.40137C9.09 1.58801 8.75 2.09668 8.75 2.66663V12.6666H6.875C6.53053 12.6666 6.24992 12.3673 6.24992 12V10.6666C6.24992 10.2987 5.97 10 5.62496 10C5.27992 10 5 10.2987 5 10.6666V12C5 13.1027 5.84126 14 6.875 14H8.75V14.6666C8.75 15.402 9.31053 16 9.99992 16C10.1337 16 10.2606 15.9794 10.3981 15.934L14.1531 14.5986C14.66 14.412 15 13.9033 15 13.3334V1.33337C15 0.55603 14.3718 -0.0533447 13.6387 0.0100097Z" fill="white"/>
<path d="M6.69182 6.19536L4.19186 3.52873C4.0131 3.33806 3.74439 3.28068 3.51059 3.38408C3.27747 3.48735 3.12504 3.73076 3.12504 4.00004V6.00004H0.624962C0.280037 6.00004 0 6.29875 0 6.66667C0 7.03471 0.280037 7.33342 0.624962 7.33342H3.12504V9.33342C3.12504 9.6027 3.27747 9.84599 3.51059 9.94938C3.74439 10.0527 4.0131 9.9954 4.19186 9.80473L6.69182 7.13798C6.93626 6.87736 6.93626 6.4561 6.69182 6.19536Z" fill="white"/>
</g>
<defs>
<clipPath id="clip0_1074_12527">
<rect width="15" height="16" fill="white"/>
</clipPath>
</defs>
</svg>
