<svg width="135" height="43" viewBox="0 0 135 43" fill="none" xmlns="http://www.w3.org/2000/svg">
<path d="M21.2857 42.5715C33.0415 42.5715 42.5715 33.0415 42.5715 21.2857C42.5715 9.52995 33.0415 0 21.2857 0C9.52995 0 0 9.52995 0 21.2857C0 33.0415 9.52995 42.5715 21.2857 42.5715Z" fill="url(#paint0_linear_1125_8559)"/>
<path d="M22.1065 9.97961L23.6927 14.0023C24.5724 16.2327 26.3378 17.9981 28.5682 18.8778L32.5909 20.464C33.3356 20.7576 33.3356 21.8113 32.5909 22.1048L28.5682 23.691C26.3378 24.5707 24.5724 26.3361 23.6927 28.5665L22.1065 32.5892C21.813 33.3338 20.7593 33.3338 20.4657 32.5892L18.8795 28.5665C17.9998 26.3361 16.2344 24.5707 14.004 23.691L9.98132 22.1048C9.2367 21.8113 9.2367 20.7576 9.98132 20.464L14.004 18.8778C16.2344 17.9981 17.9998 16.2327 18.8795 14.0023L20.4657 9.97961C20.7593 9.23499 21.813 9.23499 22.1065 9.97961Z" fill="#EDF0F4"/>
<path d="M54.3076 32.6381V9.22852H59.2743L66.1283 21.579L72.9161 9.22852H77.7503V32.6381H74.2405V13.2681L66.8236 26.8437H65.3005L57.8174 13.2681V32.6381H54.3076Z" fill="#1E1E1E"/>
<path d="M81.9231 32.6381V15.1885H85.3335V27.539C85.4881 27.2741 85.6867 26.9871 85.9296 26.6781C86.1724 26.347 86.36 26.0821 86.4924 25.8834L94.4722 15.1885H97.6509V32.6381H94.2405V20.3539C94.0639 20.6408 93.8762 20.9278 93.6776 21.2148C93.4789 21.4796 93.2913 21.7225 93.1147 21.9432L85.1349 32.6381H81.9231Z" fill="#1E1E1E"/>
<path d="M101.147 38.9954V15.1885H104.392L104.557 17.705C105.175 16.7779 105.992 16.0936 107.008 15.6521C108.023 15.1885 109.105 14.9567 110.253 14.9567C111.974 14.9567 113.398 15.3541 114.524 16.1487C115.65 16.9434 116.488 18.014 117.04 19.3605C117.592 20.7071 117.868 22.2302 117.868 23.9299C117.868 25.6296 117.581 27.1527 117.007 28.4992C116.455 29.8457 115.594 30.9053 114.425 31.6779C113.277 32.4505 111.809 32.8368 110.021 32.8368C109.16 32.8368 108.387 32.7485 107.703 32.5719C107.019 32.3953 106.423 32.1414 105.915 31.8103C105.407 31.4571 104.955 31.0819 104.557 30.6845V38.9954H101.147ZM109.623 29.7905C110.815 29.7905 111.765 29.5257 112.471 28.9959C113.177 28.444 113.685 27.7266 113.994 26.8437C114.303 25.9607 114.458 25.0005 114.458 23.963C114.458 22.8814 114.292 21.8991 113.961 21.0161C113.652 20.1111 113.133 19.3936 112.405 18.8639C111.698 18.312 110.749 18.0361 109.557 18.0361C108.476 18.0361 107.56 18.312 106.809 18.8639C106.058 19.3936 105.485 20.1111 105.087 21.0161C104.712 21.9211 104.524 22.9034 104.524 23.963C104.524 25.0446 104.701 26.0379 105.054 26.943C105.429 27.826 105.992 28.5213 106.743 29.029C107.515 29.5367 108.476 29.7905 109.623 29.7905Z" fill="#1E1E1E"/>
<path d="M126.094 32.8368C125.321 32.8368 124.571 32.7374 123.842 32.5388C123.114 32.318 122.462 31.998 121.889 31.5786C121.315 31.1371 120.851 30.5963 120.498 29.9561C120.167 29.2939 120.001 28.5213 120.001 27.6383C120.001 26.5788 120.2 25.7068 120.597 25.0225C121.017 24.3162 121.568 23.7754 122.253 23.4001C122.937 23.0028 123.721 22.7268 124.604 22.5723C125.509 22.3957 126.447 22.3074 127.418 22.3074H131.689C131.689 21.4465 131.557 20.696 131.292 20.0559C131.027 19.3936 130.608 18.8859 130.034 18.5328C129.482 18.1575 128.743 17.9699 127.815 17.9699C127.264 17.9699 126.734 18.0361 126.226 18.1685C125.74 18.2789 125.321 18.4665 124.968 18.7314C124.615 18.9963 124.372 19.3495 124.239 19.791H120.663C120.796 18.9522 121.094 18.2348 121.557 17.6388C122.021 17.0207 122.595 16.513 123.279 16.1156C123.964 15.7183 124.692 15.4313 125.465 15.2547C126.259 15.0561 127.065 14.9567 127.882 14.9567C129.559 14.9567 130.917 15.2879 131.954 15.9501C133.014 16.6123 133.786 17.5615 134.272 18.7976C134.758 20.0338 135.001 21.5017 135.001 23.2014V32.6381H132.054L131.921 30.4859C131.414 31.126 130.829 31.6227 130.166 31.9759C129.526 32.307 128.853 32.5277 128.147 32.6381C127.44 32.7706 126.756 32.8368 126.094 32.8368ZM126.69 29.9561C127.705 29.9561 128.588 29.7905 129.339 29.4594C130.089 29.1062 130.663 28.6096 131.06 27.9694C131.48 27.3072 131.689 26.5236 131.689 25.6185V24.9232H128.577C127.937 24.9232 127.308 24.9453 126.69 24.9894C126.072 25.0115 125.509 25.0998 125.001 25.2543C124.515 25.3868 124.129 25.6185 123.842 25.9497C123.555 26.2808 123.412 26.7554 123.412 27.3734C123.412 27.9694 123.566 28.4551 123.875 28.8303C124.184 29.2056 124.593 29.4925 125.1 29.6912C125.608 29.8678 126.138 29.9561 126.69 29.9561Z" fill="#1E1E1E"/>
<defs>
<linearGradient id="paint0_linear_1125_8559" x1="35.4794" y1="11.7477" x2="0.14113" y2="35.4941" gradientUnits="userSpaceOnUse">
<stop stop-color="#4EB97F"/>
<stop offset="1" stop-color="#488CE1"/>
</linearGradient>
</defs>
</svg>
