<svg width="98" height="31" viewBox="0 0 98 31" fill="none" xmlns="http://www.w3.org/2000/svg">
<path d="M15.4519 30.9037C23.9857 30.9037 30.9037 23.9857 30.9037 15.4519C30.9037 6.91804 23.9857 0 15.4519 0C6.91804 0 0 6.91804 0 15.4519C0 23.9857 6.91804 30.9037 15.4519 30.9037Z" fill="url(#paint0_linear_1125_8566)"/>
<path d="M16.0472 7.24452L17.1987 10.1647C17.8373 11.7838 19.1189 13.0654 20.738 13.704L23.6582 14.8554C24.1987 15.0685 24.1987 15.8334 23.6582 16.0465L20.738 17.198C19.1189 17.8366 17.8373 19.1181 17.1987 20.7373L16.0472 23.6574C15.8342 24.198 15.0692 24.198 14.8562 23.6574L13.7047 20.7373C13.0661 19.1181 11.7845 17.8366 10.1654 17.198L7.24525 16.0465C6.70471 15.8334 6.70471 15.0685 7.24525 14.8554L10.1654 13.704C11.7845 13.0654 13.0661 11.7838 13.7047 10.1647L14.8562 7.24452C15.0692 6.70398 15.8342 6.70398 16.0472 7.24452Z" fill="#EDF0F4"/>
<path d="M39.4229 23.6928V6.69922H43.0283L48.0038 15.6647L52.9312 6.69922H56.4405V23.6928H53.8927V9.63164L48.5086 19.4865H47.4029L41.9707 9.63164V23.6928H39.4229Z" fill="#1E1E1E"/>
<path d="M59.4696 23.6928V11.0257H61.9454V19.9913C62.0576 19.799 62.2018 19.5907 62.378 19.3663C62.5543 19.126 62.6905 18.9337 62.7867 18.7895L68.5794 11.0257H70.8869V23.6928H68.4111V14.7754C68.2829 14.9837 68.1467 15.192 68.0025 15.4003C67.8583 15.5926 67.7221 15.7689 67.5939 15.9291L61.8012 23.6928H59.4696Z" fill="#1E1E1E"/>
<path d="M73.4248 28.3078V11.0257H75.7803L75.9005 12.8525C76.3492 12.1795 76.9421 11.6827 77.6792 11.3623C78.4163 11.0257 79.2015 10.8575 80.0347 10.8575C81.2846 10.8575 82.3182 11.1459 83.1354 11.7228C83.9526 12.2997 84.5616 13.0768 84.9622 14.0543C85.3628 15.0318 85.5631 16.1375 85.5631 17.3713C85.5631 18.6052 85.3548 19.7108 84.9381 20.6883C84.5375 21.6658 83.9126 22.435 83.0633 22.9958C82.23 23.5566 81.1644 23.8371 79.8665 23.8371C79.2415 23.8371 78.6807 23.773 78.1839 23.6448C77.6872 23.5166 77.2545 23.3323 76.886 23.0919C76.5174 22.8356 76.1889 22.5631 75.9005 22.2747V28.3078H73.4248ZM79.578 21.6257C80.4433 21.6257 81.1324 21.4334 81.6452 21.0489C82.1579 20.6483 82.5265 20.1275 82.7508 19.4865C82.9752 18.8455 83.0873 18.1485 83.0873 17.3953C83.0873 16.6102 82.9672 15.8971 82.7268 15.2561C82.5024 14.5991 82.1259 14.0783 81.5971 13.6938C81.0843 13.2932 80.3953 13.0929 79.53 13.0929C78.7448 13.0929 78.0798 13.2932 77.535 13.6938C76.9901 14.0783 76.5735 14.5991 76.2851 15.2561C76.0127 15.9131 75.8765 16.6262 75.8765 17.3953C75.8765 18.1805 76.0047 18.9016 76.261 19.5586C76.5334 20.1996 76.9421 20.7043 77.4869 21.0729C78.0477 21.4415 78.7448 21.6257 79.578 21.6257Z" fill="#1E1E1E"/>
<path d="M91.5342 23.8371C90.9734 23.8371 90.4285 23.765 89.8997 23.6207C89.3709 23.4605 88.8982 23.2281 88.4816 22.9237C88.065 22.6032 87.7285 22.2106 87.4721 21.7459C87.2317 21.2652 87.1115 20.7043 87.1115 20.0634C87.1115 19.2942 87.2557 18.6613 87.5442 18.1645C87.8486 17.6517 88.2492 17.2591 88.746 16.9867C89.2427 16.6983 89.8116 16.498 90.4526 16.3858C91.1096 16.2576 91.7906 16.1935 92.4957 16.1935H95.5963C95.5963 15.5686 95.5002 15.0238 95.3079 14.5591C95.1156 14.0783 94.8111 13.7098 94.3945 13.4534C93.9939 13.181 93.4571 13.0448 92.7841 13.0448C92.3835 13.0448 91.9989 13.0929 91.6303 13.189C91.2778 13.2691 90.9734 13.4053 90.717 13.5976C90.4606 13.7899 90.2843 14.0463 90.1882 14.3668H87.5923C87.6884 13.7579 87.9047 13.2371 88.2412 12.8044C88.5777 12.3557 88.9944 11.9872 89.4911 11.6988C89.9879 11.4103 90.5167 11.202 91.0775 11.0738C91.6544 10.9296 92.2393 10.8575 92.8322 10.8575C94.05 10.8575 95.0355 11.0979 95.7886 11.5786C96.5578 12.0593 97.1186 12.7483 97.4711 13.6457C97.8237 14.543 98 15.6087 98 16.8425V23.6928H95.8607L95.7646 22.1305C95.396 22.5952 94.9714 22.9557 94.4907 23.2121C94.026 23.4525 93.5372 23.6127 93.0244 23.6928C92.5117 23.789 92.0149 23.8371 91.5342 23.8371ZM91.9669 21.7459C92.704 21.7459 93.3449 21.6257 93.8898 21.3854C94.4346 21.129 94.8512 20.7684 95.1396 20.3037C95.4441 19.823 95.5963 19.2542 95.5963 18.5972V18.0924H93.3369C92.8722 18.0924 92.4155 18.1084 91.9669 18.1405C91.5182 18.1565 91.1096 18.2206 90.741 18.3328C90.3885 18.4289 90.108 18.5972 89.8997 18.8375C89.6914 19.0779 89.5873 19.4224 89.5873 19.8711C89.5873 20.3037 89.6994 20.6563 89.9238 20.9287C90.1481 21.2011 90.4446 21.4094 90.8131 21.5536C91.1817 21.6818 91.5662 21.7459 91.9669 21.7459Z" fill="#1E1E1E"/>
<defs>
<linearGradient id="paint0_linear_1125_8566" x1="25.7554" y1="8.52795" x2="0.10245" y2="25.7661" gradientUnits="userSpaceOnUse">
<stop stop-color="#4EB97F"/>
<stop offset="1" stop-color="#488CE1"/>
</linearGradient>
</defs>
</svg>
