<svg width="21" height="62" viewBox="0 0 21 62" fill="none" xmlns="http://www.w3.org/2000/svg">
<g clip-path="url(#clip0_3252_9378)">
<path fill-rule="evenodd" clip-rule="evenodd" d="M1.14348 23.2667C11.8549 23.2667 20.5382 15.1144 20.5382 5.05797C20.5382 3.30291 20.2737 1.60586 19.7801 2.27015e-06C19.8628 1.18496e-08 19.9459 0 20.0296 0H27.2734C34.6455 0 38.3315 0 41.0953 1.54779C43.0486 2.64168 44.6613 4.25441 45.7552 6.20769C47.303 8.97147 47.303 12.6575 47.303 20.0296V41.9704C47.303 49.3425 47.303 53.0285 45.7552 55.7923C44.6613 57.7456 43.0486 59.3583 41.0953 60.4522C38.3315 62 34.6455 62 27.2734 62H20.0296C12.6575 62 8.97147 62 6.20769 60.4522C4.25441 59.3583 2.64168 57.7456 1.54779 55.7923C0 53.0285 0 49.3425 0 41.9704V23.2355C0.378352 23.2562 0.759616 23.2667 1.14348 23.2667Z" fill="#488CE1"/>
</g>
<defs>
<clipPath id="clip0_3252_9378">
<rect width="21" height="62" fill="white"/>
</clipPath>
</defs>
</svg>
